<svg width="140" height="140" viewBox="0 0 140 140" fill="none" xmlns="http://www.w3.org/2000/svg">
<path d="M60.4072 51.0448C61.0578 50.9681 61.7634 51.0132 62.4196 51.0129C67.2905 51.0113 73.0474 52.0231 77.7441 53.3317C85.1634 55.3384 92.0954 58.8375 98.1166 63.6149C98.7779 64.1403 100.741 65.0421 100.287 66.0257C99.3235 68.1111 98.1397 67.489 96.7313 66.3474C96.5344 66.188 96.1176 65.9112 95.8931 65.7525C91.83 62.8928 87.4427 60.5246 82.8228 58.6972C81.0973 58.0416 79.3473 57.4502 77.5779 56.9241C66.9299 53.8296 54.1109 53.6674 43.448 56.8229C41.8768 57.2883 40.3198 57.8001 38.7791 58.3579C37.1817 58.9509 34.2994 60.1117 32.6865 60.3571C41.1271 54.5927 50.2824 51.8267 60.4072 51.0448Z" fill="white"/>
<path fill-rule="evenodd" clip-rule="evenodd" d="M94.5408 75.3112C94.1255 75.2875 93.6855 75.2625 93.3006 75.3178C90.2051 75.5912 87.2073 76.5207 85.0584 78.911C83.719 80.4005 83.4613 82.7488 85.1044 84.1231C86.6882 85.448 89.3357 85.5683 91.3322 85.4274C93.3405 85.2909 95.2746 84.954 97.1484 84.1926C98.8242 83.5114 100.704 82.493 100.514 80.4245C100.196 76.9647 98.8048 75.2765 95.2265 75.3348C95.017 75.3382 94.7831 75.3249 94.5408 75.3112ZM92.1924 77.0566C94.2298 76.9119 96.1547 77.796 97.7513 78.9932C98.5573 79.5976 98.9935 80.7653 98.1865 81.5632C96.6088 83.1242 94.3024 83.6057 92.1627 83.7645C90.9968 83.8461 87.2543 83.9442 86.5097 83.1251C83.6735 80.0061 89.8262 77.2197 92.1924 77.0566Z" fill="white"/>
<path d="M31.11 65.6209C32.6951 65.4255 35.0341 66.0388 36.235 67.1259C36.6117 67.4668 36.4775 68.5334 35.7249 68.4071C34.9239 68.2726 34.1734 67.938 33.3738 67.776C28.6799 66.8252 24.3595 69.506 23.5302 74.3045C23.1442 76.5502 23.3269 78.9981 24.637 80.9255C25.624 82.3696 27.1441 83.3627 28.863 83.6862C31.7226 84.2163 34.8204 83.4086 37.1926 81.7718C37.6125 81.4654 38.0543 80.8873 38.5562 80.7857C38.6955 80.7575 38.8595 80.803 38.9739 80.8917C39.1855 81.0557 39.3578 81.3644 39.3993 81.6244C39.4388 81.849 39.2455 82.1908 39.088 82.3366C35.5277 85.6326 28.5676 86.8383 24.6475 83.5868C23.0967 82.3005 22.2404 80.3555 22.076 78.4317C21.7984 75.1819 22.2123 71.4664 24.4753 68.9437C26.3082 66.88 28.3582 65.8315 31.11 65.6209Z" fill="white"/>
<path d="M65.4927 75.3386C66.968 75.2277 71.3158 75.456 72.3882 76.3726C72.558 76.5178 72.6342 76.6934 72.647 76.9155C72.6603 77.1399 72.5964 77.3746 72.4399 77.5405C72.2691 77.7207 72.0471 77.7613 71.8088 77.7396C71.2463 77.6882 70.6643 77.4353 70.113 77.3035C68.7496 76.9778 67.2648 76.7992 65.8649 76.858C64.6833 76.9075 61.2115 77.5078 60.4379 78.3791C60.3452 78.4835 60.2796 78.6058 60.2981 78.7502C60.3687 79.3029 61.2575 79.5383 61.7111 79.6513C64.4267 80.3279 71.4483 80.1684 73.4279 81.7569C73.7399 82.0069 73.95 82.331 73.9853 82.7345C74.0293 83.2049 73.879 83.6729 73.569 84.0296C72.6281 85.116 68.7674 85.5078 67.3244 85.6076C65.5006 85.8668 62.6781 85.4521 60.8345 85.2208C60.4278 85.1698 59.8638 85.0614 59.6172 84.7049C59.5068 84.5475 59.4641 84.3524 59.4985 84.1632C59.5265 84.0117 59.6035 83.8735 59.7176 83.77C60.2201 83.3078 61.5966 83.7375 62.2754 83.7452C62.9622 83.753 63.7194 83.8705 64.4113 83.858C66.468 83.8208 68.6614 83.9414 70.6735 83.5125C71.235 83.3918 71.9699 82.8389 72.4261 82.5112C72.0635 82.4943 71.2693 82.3287 70.8607 82.2704C69.3522 82.0653 67.8474 81.8321 66.3474 81.5707L62.401 80.9463C61.7165 80.8382 61.036 80.7431 60.3559 80.6069C59.4336 80.4277 58.7638 80.0764 58.6655 79.0342C58.4594 76.8486 61.0697 76.3045 62.6672 75.8343C63.574 75.5674 64.5632 75.4225 65.4927 75.3386Z" fill="white"/>
<path d="M116.038 69.2332C116.765 69.264 117.239 69.9767 116.874 70.4495C115.818 71.8188 114.658 73.4079 113.661 74.8028C112.727 76.1098 110.963 77.3889 111.763 79.1748C112.537 80.9031 113.676 82.4222 113.477 84.4095C112.976 83.5582 111.143 80.6602 110.494 80.1354C110.327 80.0003 110.148 79.8985 109.927 79.9281C109.642 79.9665 109.428 80.1943 109.248 80.3998C108.535 81.2158 107.949 82.2211 107.319 83.1079C106.282 84.5605 105.219 85.9953 104.133 87.4114C103.633 88.1139 103.325 88.7208 102.527 89.069C102.054 88.8669 101.388 88.402 101.777 87.8016C102.104 87.2995 102.576 86.8412 102.941 86.3408C103.757 85.2241 104.562 84.0991 105.374 82.9794C106.243 81.7295 107.703 80.1078 108.314 78.7877C108.691 77.5554 107.652 76.8982 107.086 75.9843C106.707 75.3733 107.401 74.5203 107.925 74.2816C109.095 73.7477 109.528 76.6153 110.67 75.8311C111.049 75.5714 111.685 74.6503 111.978 74.2497C112.75 73.1896 113.533 72.1371 114.326 71.0926C114.799 70.4621 115.315 69.5424 116.038 69.2332Z" fill="white"/>
<path d="M44.3051 75.3349C44.3878 75.3238 44.4708 75.3154 44.5541 75.3096C44.8511 75.2904 45.2007 75.3239 45.4303 75.5362C45.7825 75.862 45.6698 76.8913 45.6867 77.3559C45.7433 78.9223 45.6037 82.2894 46.8125 83.3845C47.2025 83.7379 47.7588 83.8077 48.265 83.7865C49.454 83.7367 50.5459 83.1907 51.5992 82.6851C52.3413 82.3289 53.1592 81.9984 53.7877 81.4583C55.8359 79.6982 54.5533 76.6259 55.5816 75.5536C55.731 75.3978 55.9279 75.3203 56.1421 75.3199C56.4116 75.3195 56.6952 75.382 56.8889 75.5819C57.4646 76.1756 57.0126 78.4372 57.0034 79.3051C56.9586 80.2786 56.9424 81.2533 56.9548 82.2277C56.9669 82.8054 57.1739 84.9852 56.676 85.2869C55.0967 86.2443 55.6967 83.4769 54.7892 83.5029C54.4477 83.5128 53.25 84.2301 52.8351 84.3649C51.587 84.9455 50.2754 85.2121 48.9668 85.5028C46.0868 86.1925 44.9678 84.511 44.4554 81.9164C44.0837 80.034 43.9153 77.7969 43.9527 75.8597C43.957 75.6368 44.1307 75.4571 44.3051 75.3349Z" fill="white"/>
<path d="M79.3483 68.2167C81.0436 67.9617 80.4238 69.7321 80.4207 70.7175C80.4197 71.2817 80.4949 71.9073 80.5327 72.4651C80.5967 73.2109 80.4417 73.9947 80.7644 74.7009C81.4144 76.1222 85.5542 73.8236 85.0724 76.2362C84.8755 76.9609 84.0005 76.7749 83.4523 76.6873C80.3072 76.1849 80.8749 79.026 80.905 81.1002C80.9086 81.7883 80.8902 82.4765 80.8508 83.1636C80.8155 83.8669 80.8575 84.8791 80.1482 85.2398C78.7904 85.2489 78.9817 84.5686 78.9617 83.4494C78.9459 82.674 78.9387 81.8985 78.9397 81.123C78.9474 80.2632 79.1417 78.3407 78.7884 77.6063C77.9793 76.287 75.8642 77.1645 74.5964 76.6815C74.4001 76.622 74.1843 76.4836 74.1193 76.2712C73.7746 75.1415 75.4428 75.2432 76.102 75.1384C76.4405 75.0855 76.7704 74.9894 77.0844 74.8525C78.5419 74.2004 78.8625 72.9125 78.8134 71.4061C78.7868 70.5764 78.5265 69.4936 78.8226 68.698C78.931 68.4061 79.0809 68.331 79.3483 68.2167Z" fill="white"/>
<path d="M41.3612 65.9607C41.5464 65.9443 41.748 65.9375 41.9267 65.9974C42.1522 66.0731 42.2734 66.2211 42.3722 66.4316C42.8373 67.4231 42.8914 68.7058 42.9228 69.7915C42.9516 70.7851 42.288 84.6055 42.1788 84.8603C42.0928 85.0612 41.9109 85.1332 41.7249 85.2154C41.562 85.2329 41.3809 85.2597 41.2195 85.2245C41.0137 85.1796 40.8589 85.0696 40.745 84.8928C40.218 84.0745 41.0912 75.8139 41.1864 74.4915C41.2678 73.3618 41.3316 72.2254 41.3188 71.0925C41.3112 70.415 41.2799 69.7284 41.2136 69.054C41.1481 68.3871 40.7729 67.0206 40.9253 66.4307C40.9848 66.2008 41.1701 66.0771 41.3612 65.9607Z" fill="white"/>
<path d="M102.127 67.3688C102.944 67.9199 103.537 68.3511 104.073 69.1741C103.646 69.9252 103.175 70.2099 102.486 70.7101C101.828 70.0906 101.179 69.4619 100.539 68.824C101.048 68.3963 101.631 67.8277 102.127 67.3688Z" fill="white"/>
<path d="M105.317 70.8489C105.691 70.8573 106.771 72.2162 106.992 72.5299C106.73 73.2112 106.374 73.5627 105.758 73.9109C105.323 73.4294 104.473 72.6638 103.988 72.2C104.25 71.9874 105.027 71.1422 105.317 70.8489Z" fill="white"/>
</svg>
