<svg width="32" height="32" viewBox="0 0 940 960" fill="none" xmlns="http://www.w3.org/2000/svg">
  <path d="M0.082581 5.09255C1.86025 3.31489 27.9111 1.40794 58.2607 0.826155C88.4811 0.244373 238.29 -0.143481 669.131 0.0504462L693.372 8.9711C706.721 13.8516 725.564 22.5783 735.325 28.3638C745.054 34.117 763.574 49.3726 776.535 62.2688C795.022 80.6918 803.167 92.0689 814.641 115.599C822.689 132.05 831.578 156.388 834.357 169.737C837.913 186.641 838.979 203.739 837.848 226.299C836.62 251.219 834.066 264.567 826.762 284.477C821.526 298.698 813.542 316.152 809.018 323.262C804.493 330.373 796.638 341.33 791.532 347.6C786.425 353.871 751.001 389.456 712.765 426.658C674.561 463.86 617.094 519.743 585.096 550.836C553.098 581.929 503.227 630.702 474.267 659.241C445.307 687.781 421.68 712.571 421.745 714.349C421.81 716.482 469.386 716.676 704.685 712.248L824.273 831.998C921.754 929.641 943.086 952.524 939.66 955.885C936.298 959.15 867.842 959.99 271.581 959.99L247.34 951.069C234.023 946.189 215.148 937.462 205.387 931.677C195.658 925.924 177.138 910.668 164.177 897.772C145.69 879.349 137.545 867.972 126.071 844.442C118.023 827.99 109.134 803.62 106.355 790.304C102.735 773.044 101.765 756.722 103.026 733.742C103.995 715.965 106.84 694.892 109.361 686.876C111.882 678.86 118.087 663.605 123.162 652.939C128.236 642.273 140.809 623.009 151.087 610.113C161.365 597.217 171.773 585.581 174.262 584.256C176.718 582.931 228.723 533.156 289.81 473.653C350.897 414.117 427.207 339.94 459.399 308.815C491.591 277.657 518.127 250.346 518.385 248.116C518.741 244.916 489.555 244.463 236.027 247.922L116.439 128.107C37.155 48.6615 -2.05062 7.19343 0.082581 5.09255Z" fill="white" />
</svg>
