<svg width="140" height="140" viewBox="0 0 140 140" fill="none" xmlns="http://www.w3.org/2000/svg">
<path d="M37.1646 40.4314C38.039 40.3759 38.7655 40.3376 39.5746 40.7692C40.7537 41.3983 41.897 42.0907 43.0533 42.7606L49.7096 46.6088L58.7077 51.7813C60.0151 52.5463 62.4373 53.7541 63.4309 54.8001C63.5599 57.2294 63.3806 60.4808 63.3752 63.0165L63.3747 80.7179L63.3756 101.565C63.3754 105.287 63.4067 109.048 63.3314 112.77C63.3186 113.401 63.1699 113.915 62.8594 114.46C62.6759 114.767 62.6221 114.986 62.2558 115C56.1158 111.29 49.5797 107.878 43.4311 104.162C41.8397 103.2 38.0474 101.326 37.0991 100.105C36.9104 96.8506 37.049 92.3727 37.0505 88.9878L37.0503 68.5179L37.0509 50.6772C37.0514 47.6697 36.9313 43.3375 37.1646 40.4314Z" fill="#FEFEFE"/>
<path d="M64.326 25C65.7902 25.2999 72.8242 29.5998 74.5783 30.6251L84.0592 36.0984L95.0466 42.4518C97.2588 43.7217 100.655 45.3239 102.512 47.0322C102.572 55.4318 102.59 63.8317 102.564 72.2316C102.563 72.9936 102.652 75.9752 102.181 76.3426C99.6428 78.3201 95.8317 80.2448 92.9962 81.88C91.444 82.7116 89.9543 83.7132 88.4174 84.5636C85.4885 86.1293 82.6333 87.9 79.7687 89.5679C77.4202 90.9353 76.287 91.7211 76.2083 88.2732C76.1597 86.1506 76.1664 84.0503 76.171 81.938L76.1761 68.1883C76.1756 66.4045 76.2519 64.2339 76.0588 62.471C76.0227 62.0581 75.6407 61.6599 75.2984 61.4399C71.4347 58.956 67.3021 56.9243 63.4614 54.3707C63.3073 52.503 63.4004 50.1528 63.4095 48.2427L63.4178 38.6443L63.4007 30.6722C63.3991 29.5883 63.3729 26.3752 63.5885 25.4685C63.755 25.1764 64.0077 25.1222 64.326 25Z" fill="#FEFEFE"/>
</svg>
