<svg width="140" height="140" viewBox="0 0 140 140" fill="none" xmlns="http://www.w3.org/2000/svg">
<path d="M88.2425 62.8057C90.4452 63.292 93.0705 64.0738 95.2806 64.6708C94.4025 70.1166 94.1561 72.0007 92.0177 77.3019C97.0801 75.6833 99.217 75.2364 104.454 75.4387C104.941 77.329 105.856 79.8767 106.463 81.8314C84.5226 78.6401 85.1752 103.128 98.3255 112.898C100.212 113.879 112.957 112.472 115.786 113.295C116.131 113.642 116.095 113.684 116.178 114.159L115.953 114.477C115.215 114.873 114.48 114.951 113.649 114.945C107.645 114.903 101.635 114.915 95.633 114.916L32.837 114.915L26.6017 114.922C25.3077 114.933 22.583 115.308 21.7548 114.313C21.6338 113.754 21.5999 114.011 21.8204 113.515C22.5967 112.932 27.7186 113.159 28.9654 113.161L42.2336 113.153C44.1911 111.916 45.8966 110.319 47.26 108.447C50.6198 103.896 52.4993 97.5898 51.6539 91.9499C50.3238 83.0763 42.5041 80.6253 34.5639 81.8332C35.1249 79.7454 35.9512 77.5724 36.557 75.4235C41.7214 75.2472 44.0553 75.6758 48.9977 77.3301C47.1321 72.8376 46.3363 69.4442 45.7652 64.666C47.9877 64.0544 50.3277 63.3709 52.5654 62.8701L52.6694 62.9333C52.793 63.1864 52.8215 63.152 52.8012 63.3965C51.7772 75.7314 62.2044 80.7519 65.8852 91.7162C68.5311 99.5983 68.4706 104.888 68.1343 113.159H72.8697C72.5828 105.25 72.5282 99.6114 75.0901 91.8196C78.0236 82.898 85.8801 77.798 87.8766 68.7592C88.3112 66.7922 88.2619 64.7954 88.2425 62.8057Z" fill="white"/>
<path d="M31.3308 59.2861C36.61 58.8941 38.8091 62.5165 41.0597 66.5904C40.9525 66.7317 40.842 66.8707 40.7285 67.0071C38.7949 69.3263 37.1288 70.3492 34.1141 70.6332C29.5873 70.1824 26.9869 67.6003 24.1759 64.1775C26.3393 61.724 28.0709 60.0243 31.3308 59.2861Z" fill="white"/>
<path d="M107.484 59.2818C111.795 59.0415 114.137 61.0309 116.822 64.1908C114.579 66.9288 112.566 69.0084 109.216 70.2293C105.041 71.3489 102.414 69.6663 99.9518 66.5638C100.38 65.8088 100.819 65.0597 101.269 64.3169C102.814 61.8073 104.557 59.9827 107.484 59.2818Z" fill="white"/>
<path d="M22.0127 69.0021C26.3033 68.5155 28.9733 70.9116 31.8182 73.7525C30.4851 77.2243 28.7788 79.0386 25.1094 79.8686C21.2572 80.2078 18.1132 78.3487 15 76.3847C16.3167 72.9184 18.3255 70.0776 22.0127 69.0021Z" fill="white"/>
<path d="M116.588 68.9863C121.638 68.584 124.335 72.0789 126 76.3681C123.493 78.0777 121.601 79.0517 118.674 79.7452C113.659 80.5914 110.989 78.0337 109.185 73.7423C111.53 71.3961 113.34 69.766 116.588 68.9863Z" fill="white"/>
<path d="M81.4568 25L81.7764 25.1001C84.3001 28.3794 86.237 34.4895 83.549 38.2386C82.7874 39.3016 79.4498 42.2588 78.1849 41.3701C71.5827 34.6091 72.7238 28.5866 81.4568 25Z" fill="white"/>
<path d="M68.5693 26.9734L68.8864 27.0236C72.7463 32.5666 74.1474 40.8834 65.9641 43.4741C65.5925 43.5917 65.5433 43.4965 65.2713 43.3177C58.899 36.4747 59.6449 30.5555 68.5693 26.9734Z" fill="white"/>
<path d="M80.2308 60.1523C81.2253 60.8506 83.0681 65.4623 83.313 66.9186C83.8043 69.2503 83.6236 71.1735 82.2692 73.2024C81.3807 74.5329 78.2118 77.6027 76.6229 76.3889C70.6219 69.554 71.058 63.5091 80.2308 60.1523Z" fill="white"/>
<path d="M89.5014 38.9206L89.7941 39.0018C92.2432 42.1718 94.1636 48.0706 91.7817 51.819C91.0141 53.0282 87.5362 56.2265 86.1817 55.2663C79.8365 48.534 80.5668 42.3463 89.5014 38.9206Z" fill="white"/>
<path d="M51.2275 28.3493C52.4256 29.4903 54.233 33.9808 54.3898 35.8278C54.6955 38.0691 54.2978 40.1766 52.8805 42.0133C52.0426 43.0994 48.9526 45.7657 47.6658 44.656C40.9507 37.714 42.6485 31.9377 51.2275 28.3493Z" fill="white"/>
<path d="M59.8262 42.9927C62.1743 46.9066 64.5611 51.8908 61.6643 56.2329C60.7928 57.5392 57.5479 60.5221 56.086 59.2635C49.8105 52.2603 50.8279 46.39 59.8262 42.9927Z" fill="white"/>
<path d="M74.7399 42.2335C76.022 43.6989 77.5652 47.3899 77.8295 49.3983C78.1416 51.7716 77.9251 53.8637 76.3765 55.8473C75.3719 57.1339 73.565 58.6364 71.8787 58.8121C71.3683 58.8652 71.3207 58.6803 70.9678 58.3365C64.5683 51.5589 66.1678 45.542 74.7399 42.2335Z" fill="white"/>
<path d="M66.2345 60.4209C66.3001 60.4152 66.5669 60.4653 66.6438 60.4775C67.5791 61.4951 68.1968 63.0218 68.7421 64.2731C70.9532 69.3475 69.7995 74.7639 64.2202 76.7893C63.798 76.9426 63.6055 77.0536 63.2157 76.8692C56.5814 70.1493 57.5418 64.1971 66.2345 60.4209Z" fill="white"/>
<path d="M112.037 82.9102C114.875 82.5653 118.299 83.407 119.925 85.9318C121.726 88.7276 121.475 91.9604 120.924 95.0799C119.788 95.1053 118.774 95.0124 117.64 94.9253C117.077 94.8452 116.516 94.7547 115.956 94.6538C109.684 93.4655 107.217 89.5742 108.48 83.3962C109.612 83.1643 110.881 83.0453 112.037 82.9102Z" fill="white"/>
<path d="M26.9761 82.9021C28.6426 82.726 30.9104 83.1192 32.5635 83.4047C33.7764 89.7146 31.4588 93.1074 25.2953 94.6122C23.4118 94.967 21.9782 95.0811 20.0633 95.082L19.914 94.034C19.1068 88.154 20.3173 83.7701 26.9761 82.9021Z" fill="white"/>
<path d="M37.0881 47.8737C46.8739 47.5625 49.7324 52.949 46.4462 61.7204C46.3039 62.0456 46.3699 61.9233 46.0543 62.1665C45.2599 62.3325 44.7332 62.2962 43.9532 62.1847C36.0702 61.058 36.1939 53.876 37.0881 47.8737Z" fill="white"/>
<path d="M101.194 47.9485C101.898 47.8676 103.165 47.8786 103.921 47.8661C105.119 54.4885 104.636 60.9806 96.6709 62.233C96.078 62.2528 95.3911 62.222 94.7893 62.2108C91.5189 55.4485 92.8375 48.9331 101.194 47.9485Z" fill="white"/>
<path d="M97.6744 87.247C106.605 86.4421 108.186 91.8014 107.144 99.2829C106.328 99.289 105.461 99.2481 104.642 99.2242C103.906 99.1765 103.171 99.0924 102.443 98.972C96.087 97.8775 93.4483 94.1218 94.6161 87.7306C95.9123 87.3909 96.3095 87.3627 97.6744 87.247Z" fill="white"/>
<path d="M40.3586 87.2375C42.1499 87.0581 44.6609 87.2312 46.3899 87.7256C47.8171 93.6748 45.1446 97.2203 39.5105 98.783C37.3955 99.2222 36.0187 99.2678 33.8961 99.2877C33.0162 93.751 33.384 88.035 40.3586 87.2375Z" fill="white"/>
</svg>
