<svg width="140" height="140" viewBox="0 0 140 140" fill="none" xmlns="http://www.w3.org/2000/svg">
<path d="M95.788 40.9391C97.5266 40.8426 98.9587 40.7755 100.576 41.6651C103.689 43.3785 104.88 47.0967 103.595 50.3507C102.973 51.9251 101.809 53.6976 100.934 55.2062L95.8909 63.897C88.6632 76.2295 81.4991 88.5993 74.3992 101.006C81.4877 101.153 88.5779 101.199 95.668 101.144C95.2271 100.404 94.7547 99.4603 94.3238 98.6892C93.4713 97.1707 92.6067 95.6594 91.7292 94.1552C90.5893 92.1851 88.7812 89.2788 87.8092 87.3009C88.4434 86.0632 89.3651 84.5576 90.0723 83.3342C91.3662 81.0807 92.6753 78.8362 94.0001 76.601C94.5975 75.6001 95.3414 74.4587 95.8917 73.4525C97.7231 76.2855 99.5739 79.6029 101.27 82.5383L109.89 97.6031C110.977 99.526 114.587 105.498 114.904 107.211C115.21 108.86 114.596 110.744 113.655 112.092C112.722 113.429 111.289 114.523 109.657 114.791C108.929 114.91 108.144 114.88 107.405 114.899C105.866 114.944 104.327 114.965 102.787 114.96L89.8046 114.986L67.9104 114.991L60.128 114.999C58.7956 114.998 57.449 115.009 56.1188 114.98C55.5515 114.958 54.9998 114.915 54.5364 114.552C53.0232 113.367 52.8781 110.936 53.6711 109.312C54.4749 107.665 55.3777 106.101 56.2629 104.512L61.0815 95.9917L74.7139 72.3646L86.0526 52.9345C87.274 50.8517 88.5078 48.7763 89.7538 46.7081C90.3786 45.6703 91.2576 44.133 91.965 43.1889C92.8882 41.9592 94.2645 41.1492 95.788 40.9391Z" fill="#FAFAFE"/>
<path d="M69.2766 35.7266C69.9906 35.6027 70.9874 35.7434 71.6614 35.8921C73.8171 36.3638 74.8746 37.4991 76.0076 39.2514C78.2454 42.713 80.1661 46.3297 82.2763 49.8573C81.0973 52.1818 79.2643 55.0841 77.964 57.4065C77.0907 58.9663 75.2344 62.2969 74.2759 63.6102C73.4878 62.855 72.4864 60.9498 71.9087 59.9526L69.9807 56.683C68.784 58.9811 66.9413 61.9235 65.6085 64.2176L57.0586 78.9659L45.0375 99.6897C43.1483 102.941 41.2812 106.295 39.325 109.5C38.869 110.264 38.3878 111.013 37.8824 111.745C35.9804 114.448 34.7855 115.018 31.5298 114.984C27.5874 114.943 24.8402 111.433 25.0072 107.631C25.0356 106.986 25.1306 106.68 25.4199 106.104C26.1764 104.567 27.0341 103.074 27.8719 101.579L32.4239 93.5428L46.7004 68.7462L58.6069 48.2872C59.9269 46.035 61.2616 43.7914 62.6106 41.5564C64.4871 38.465 65.3047 36.2376 69.2766 35.7266Z" fill="#FAFAFE"/>
<path d="M105.443 25.1777C109.218 24.3124 112.975 26.692 113.806 30.4751C114.637 34.2582 112.223 37.9929 108.432 38.7892C104.69 39.5754 101.014 37.1993 100.193 33.4646C99.3731 29.7299 101.716 26.0319 105.443 25.1777Z" fill="#FAFAFE"/>
</svg>
